<svg width="288" height="40" viewBox="0 0 1561 215" fill="none" xmlns="http://www.w3.org/2000/svg">
  <path
    d="M234.225 36.974C212.89 15.165 182.354 4.261 142.726 4.261H0V10c18.866 0 31.037 3.323 36.514 10.003 5.477 6.68 8.233 17.187 8.233 31.63v110.598c0 14.407-2.756 24.951-8.233 31.595-5.477 6.68-17.649 10.001-36.514 10.001v5.742h150.745c31.108 0 58.1-9.352 81.046-28.02 22.911-18.704 34.402-41.632 34.402-68.894v-6.463c0-24.337-10.668-47.373-32.004-69.219h.036zm-18.722 76.693c0 24.229-5.835 45.243-17.505 63.081-11.67 17.837-37.516 26.755-77.574 26.755H87.49V9.713h31.502c35.476 0 60.427 7.944 74.853 23.903 14.427 15.924 21.658 38.96 21.658 69.038v11.049-.036zM498.306 4.26h99.124v5.742c-12.458 0-22.696 4.297-30.786 12.926-8.055 8.63-12.1 24.987-12.1 49.107v74.238c0 22.459-7.768 39.357-23.304 50.731-15.537 11.374-37.123 17.043-64.723 17.043-39.664 0-67.085-6.247-82.227-18.812-15.179-12.566-22.732-27.695-22.732-45.424V59.397c0-23.434-4.081-37.516-12.171-42.282-8.091-4.766-19.295-7.113-33.579-7.113V4.26h141.688V10c-20.047 0-33.9 2.384-41.633 7.114-7.732 4.766-11.598 18.704-11.598 41.849v81.748c0 25.42 5.835 42.968 17.577 52.717 11.705 9.749 29.891 14.624 54.591 14.624 20.799 0 38.197-5.127 52.193-15.382 13.997-10.254 20.978-27.117 20.978-50.659v-61.42c0-30.402-4.367-49.756-13.066-58.097-8.663-8.34-21.443-12.493-38.232-12.493V4.26zM697.7 30.294v115.293c0 26.467 4.832 42.787 14.569 48.962 9.702 6.174 22.947 9.279 39.664 9.279v5.742H645.506v-5.742c11.277 0 21.873-2.924 31.789-8.81 9.916-5.885 14.856-19.931 14.856-42.21v-99.44c0-17.657-3.723-29.284-11.133-34.917-7.446-5.633-17.971-8.45-31.574-8.45v-5.74h81.655l141.724 146.597V78.101c0-27.73-4.582-46.001-13.711-54.848-9.128-8.81-20.655-13.251-34.545-13.251V4.26h100.592V10c-13.639 0-24.808 3.973-33.614 11.916-8.806 7.944-13.21 27.154-13.21 57.629v132.082h-4.94L697.7 30.295zM1189.42 31.991C1166.47 10.688 1137.15 0 1101.5 0c-35.66 0-63.9 10.399-87.31 31.233-23.414 20.834-35.119 46.002-35.119 75.502 0 29.5 11.956 54.522 35.869 75.357 23.91 20.834 52.77 31.233 86.59 31.233 33.83 0 63.76-10.399 87.17-31.233 23.41-20.835 35.16-45.966 35.16-75.357 0-29.392-11.46-53.476-34.41-74.78l-.03.037zm-36.48 147.356c-12.74 18.668-29.75 28.02-51.01 28.02-21.27 0-37.23-9.352-50.44-28.02-13.25-18.667-19.83-42.86-19.83-72.576 0-29.717 6.37-54.054 19.08-72.721 12.71-18.668 29.78-28.02 51.15-28.02 21.37 0 37.09 9.352 50.3 28.02 13.21 18.667 19.83 42.932 19.83 72.721s-6.37 53.909-19.12 72.576h.04zM1536.8 200.579c-6.8-2.167-12.96-6.933-18.51-14.263l-35.01-49.54c-11.45-2.744-20.72-5.669-27.81-8.774-7.09-3.069-18.83-9.388-35.16-18.884h25.99c24.74 0 45.68-4.658 62.76-13.974 17.04-9.316 25.56-20.87 25.56-34.7v-6.463c0-12.349-6.2-23.723-18.58-34.122-12.39-10.399-34.44-15.562-66.12-15.562h-167.07v5.741c17.51 0 29 3.322 34.47 10.002 5.48 6.68 8.24 17.187 8.24 31.63v110.598c0 14.407-2.76 24.951-8.24 31.595-5.47 6.68-16.96 10.002-34.47 10.002v5.741h128.3v-5.741c-17.5 0-29-3.322-34.47-10.002-5.48-6.68-8.27-17.224-8.27-31.595V109.19h44.78l70.7 100.416h77.15v-5.741c-9.35 0-17.4-1.084-24.24-3.214v-.072zm-168.39-96.914V9.713h50.44c26.74 0 44.56 4.297 53.51 12.927 8.95 8.63 13.43 19.209 13.43 31.738v4.55c0 12.457-4.33 23-13 31.703-8.66 8.665-25.99 12.998-52.05 12.998h-52.37l.04.036z"
    fill="#bf9540" />
</svg>
