<svg xmlns="http://www.w3.org/2000/svg">
  <symbol id="shipping" viewBox="0 0 24 24" stroke-width="1" stroke="currentColor" fill="none">
    <path d="M16 12.5l-5 -3l5 -3l5 3v5.5l-5 3z" />
    <path d="M11 9.5v5.5l5 3" />
    <path d="M16 12.545l5 -3.03" />
    <path d="M7 9h-5" />
    <path d="M7 12h-3" />
    <path d="M7 15h-1" />
  </symbol>
  <symbol id="clothes" viewBox="0 0 24 24" stroke-width="1" stroke="currentColor" fill="none">
    <path
      d="M12 22l4 -4l-2.5 -11l.993 -2.649a1 1 0 0 0 -.936 -1.351h-3.114a1 1 0 0 0 -.936 1.351l.993 2.649l-2.5 11l4 4z" />
    <path d="M10.5 7h3l5 5.5" />
  </symbol>
  <symbol id="ruler" viewBox="0 0 24 24" stroke-width="1" stroke="currentColor" fill="none">
    <path d="M17 3l4 4l-14 14l-4 -4z" />
    <path d="M16 7l-1.5 -1.5" />
    <path d="M13 10l-1.5 -1.5" />
    <path d="M10 13l-1.5 -1.5" />
    <path d="M7 16l-1.5 -1.5" />
  </symbol>
  <symbol id="google" viewBox="0 0 24 24" fill="none">
    <path
      d="M12 2a9.96 9.96 0 0 1 6.29 2.226a1 1 0 0 1 .04 1.52l-1.51 1.362a1 1 0 0 1 -1.265 .06a6 6 0 1 0 2.103 6.836l.001 -.004h-3.66a1 1 0 0 1 -.992 -.883l-.007 -.117v-2a1 1 0 0 1 1 -1h6.945a1 1 0 0 1 .994 .89c.04 .367 .061 .737 .061 1.11c0 5.523 -4.477 10 -10 10s-10 -4.477 -10 -10s4.477 -10 10 -10z"
      fill="currentColor"></path>
  </symbol>
  <symbol id="error" viewBox="0 0 24 24" stroke-width="1.5" stroke="currentColor" fill="none" stroke-linecap="round"
    stroke-linejoin="round">
    <path d="M12 12m-9 0a9 9 0 1 0 18 0a9 9 0 1 0 -18 0" />
    <path d="M12 9v4" />
    <path d="M12 16v.01" />
  </symbol>
  <symbol id="close" viewBox="0 0 24 24" stroke-width="1.5" stroke="currentColor" fill="none">
    <path d="M18 6l-12 12" />
    <path d="M6 6l12 12" />
  </symbol>

</svg>
