<svg xmlns="http://www.w3.org/2000/svg">
  <symbol id="shipping" viewBox="0 0 24 24" stroke-width="1" stroke="currentColor" fill="none">
    <path d="M16 12.5l-5 -3l5 -3l5 3v5.5l-5 3z" />
    <path d="M11 9.5v5.5l5 3" />
    <path d="M16 12.545l5 -3.03" />
    <path d="M7 9h-5" />
    <path d="M7 12h-3" />
    <path d="M7 15h-1" />
  </symbol>
  <symbol id="clothes" viewBox="0 0 24 24" stroke-width="1" stroke="currentColor" fill="none">
    <path
      d="M12 22l4 -4l-2.5 -11l.993 -2.649a1 1 0 0 0 -.936 -1.351h-3.114a1 1 0 0 0 -.936 1.351l.993 2.649l-2.5 11l4 4z" />
    <path d="M10.5 7h3l5 5.5" />
  </symbol>
  <symbol id="ruler" viewBox="0 0 24 24" stroke-width="1" stroke="currentColor" fill="none">
    <path d="M17 3l4 4l-14 14l-4 -4z" />
    <path d="M16 7l-1.5 -1.5" />
    <path d="M13 10l-1.5 -1.5" />
    <path d="M10 13l-1.5 -1.5" />
    <path d="M7 16l-1.5 -1.5" />
  </symbol>
</svg>
