<svg xmlns="http://www.w3.org/2000/svg">
  <symbol id="list" viewBox="0 0 24 24" stroke-width="1" stroke="currentColor" fill="currentColor">
    <path d="M2 2 h18 v7 h-18 z" />
    <path d="M2 13 h18 v7 h-18 z" />
  </symbol>
  <symbol id="grid" viewBox="0 0 24 24" stroke-width="1" stroke="currentColor" fill="currentColor">
    <path d="M2 2 h7 v7 h-7 z"></path>
    <path d="M13 2 h7 v7 h-7 z"></path>
    <path d="M2 13 h7 v7 h-7 z"></path>
    <path d="M13 13 h7 v7 h-7 z"></path>
  </symbol>
  <symbol id="name-asc" viewBox="0 0 24 24" stroke-width="1" stroke="currentColor" fill="none">
    <path d="M15 10v-5c0 -1.38 .62 -2 2 -2s2 .62 2 2v5m0 -3h-4" />
    <path d="M19 21h-4l4 -7h-4" />
    <path d="M4 9l3 -3l3 3" />
    <path d="M7 6v12" />
  </symbol>
  <symbol id="name-desc" viewBox="0 0 24 24" stroke-width="1" stroke="currentColor" fill="none">
    <path d="M15 21v-5c0 -1.38 .62 -2 2 -2s2 .62 2 2v5m0 -3h-4" />
    <path d="M19 10h-4l4 -7h-4" />
    <path d="M4 15l3 3l3 -3" />
    <path d="M7 6v12" />
  </symbol>
  <symbol id="price-asc" viewBox="0 0 24 24" stroke-width="1" stroke="currentColor" fill="none">
    <path d="M4 9l3 -3l3 3" />
    <path d="M7 6v12" />
    <path d="M17 3a2 2 0 0 1 2 2v3a2 2 0 1 1 -4 0v-3a2 2 0 0 1 2 -2z" />
    <path d="M17 16m-2 0a2 2 0 1 0 4 0a2 2 0 1 0 -4 0" />
    <path d="M19 16v3a2 2 0 0 1 -2 2h-1.5" />
  </symbol>
  <symbol id="price-desc" viewBox="0 0 24 24" stroke-width="1" stroke="currentColor" fill="none">
    <path d="M4 15l3 3l3 -3" />
    <path d="M7 6v12" />
    <path d="M17 14a2 2 0 0 1 2 2v3a2 2 0 1 1 -4 0v-3a2 2 0 0 1 2 -2z" />
    <path d="M17 5m-2 0a2 2 0 1 0 4 0a2 2 0 1 0 -4 0" />
    <path d="M19 5v3a2 2 0 0 1 -2 2h-1.5" />
  </symbol>
</svg>
