<svg xmlns="http://www.w3.org/2000/svg">
  <symbol id="column" viewBox="0 0 24 24" stroke-width="1" stroke="currentColor" fill="none">
    <path d="M4 4m0 2a2 2 0 0 1 2 -2h12a2 2 0 0 1 2 2v12a2 2 0 0 1 -2 2h-12a2 2 0 0 1 -2 -2z" />
    <path d="M12 4l0 16" />
  </symbol>
  <symbol id="grid" viewBox="0 0 24 24" stroke-width="1" stroke="currentColor" fill="none">
    <path d="M4 4m0 1a1 1 0 0 1 1 -1h4a1 1 0 0 1 1 1v4a1 1 0 0 1 -1 1h-4a1 1 0 0 1 -1 -1z" />
    <path d="M14 4m0 1a1 1 0 0 1 1 -1h4a1 1 0 0 1 1 1v4a1 1 0 0 1 -1 1h-4a1 1 0 0 1 -1 -1z" />
    <path d="M4 14m0 1a1 1 0 0 1 1 -1h4a1 1 0 0 1 1 1v4a1 1 0 0 1 -1 1h-4a1 1 0 0 1 -1 -1z" />
    <path d="M14 14m0 1a1 1 0 0 1 1 -1h4a1 1 0 0 1 1 1v4a1 1 0 0 1 -1 1h-4a1 1 0 0 1 -1 -1z" />
  </symbol>
  <symbol id="name-asc" viewBox="0 0 24 24" stroke-width="1" stroke="currentColor" fill="none">
    <path d="M15 10v-5c0 -1.38 .62 -2 2 -2s2 .62 2 2v5m0 -3h-4" />
    <path d="M19 21h-4l4 -7h-4" />
    <path d="M4 9l3 -3l3 3" />
    <path d="M7 6v12" />
  </symbol>
  <symbol id="name-desc" viewBox="0 0 24 24" stroke-width="1" stroke="currentColor" fill="none">
    <path d="M15 21v-5c0 -1.38 .62 -2 2 -2s2 .62 2 2v5m0 -3h-4" />
    <path d="M19 10h-4l4 -7h-4" />
    <path d="M4 15l3 3l3 -3" />
    <path d="M7 6v12" />
  </symbol>
  <symbol id="price-asc" viewBox="0 0 24 24" stroke-width="1" stroke="currentColor" fill="none">
    <path d="M4 9l3 -3l3 3" />
    <path d="M7 6v12" />
    <path d="M17 3a2 2 0 0 1 2 2v3a2 2 0 1 1 -4 0v-3a2 2 0 0 1 2 -2z" />
    <path d="M17 16m-2 0a2 2 0 1 0 4 0a2 2 0 1 0 -4 0" />
    <path d="M19 16v3a2 2 0 0 1 -2 2h-1.5" />
  </symbol>
  <symbol id="price-desc" viewBox="0 0 24 24" stroke-width="1" stroke="currentColor" fill="none">
    <path d="M4 15l3 3l3 -3" />
    <path d="M7 6v12" />
    <path d="M17 14a2 2 0 0 1 2 2v3a2 2 0 1 1 -4 0v-3a2 2 0 0 1 2 -2z" />
    <path d="M17 5m-2 0a2 2 0 1 0 4 0a2 2 0 1 0 -4 0" />
    <path d="M19 5v3a2 2 0 0 1 -2 2h-1.5" />
  </symbol>
</svg>
