<svg xmlns="http://www.w3.org/2000/svg">
  <symbol id="search" viewBox="0 0 24 24" stroke-width="1.5" stroke="currentColor" fill="none">
    <path d="M10 10m-7 0a7 7 0 1 0 14 0a7 7 0 1 0 -14 0" />
    <path d="M21 21l-6 -6" />
  </symbol>
  <symbol id="favorite" viewBox="0 0 24 24" stroke-width="1.5" stroke="currentColor" fill="none">
    <path
      d="M6.979 3.074a6 6 0 0 1 4.988 1.425l.037 .033l.034 -.03a6 6 0 0 1 4.733 -1.44l.246 .036a6 6 0 0 1 3.364 10.008l-.18 .185l-.048 .041l-7.45 7.379a1 1 0 0 1 -1.313 .082l-.094 -.082l-7.493 -7.422a6 6 0 0 1 3.176 -10.215z"
      stroke-width="0" fill="currentColor" />
  </symbol>
  <symbol id="user" viewBox="0 0 24 24" stroke-width="1.5" stroke="currentColor" fill="none">
    <path d="M12 12m-9 0a9 9 0 1 0 18 0a9 9 0 1 0 -18 0" />
    <path d="M12 10m-3 0a3 3 0 1 0 6 0a3 3 0 1 0 -6 0" />
    <path d="M6.168 18.849a4 4 0 0 1 3.832 -2.849h4a4 4 0 0 1 3.834 2.855" />
  </symbol>
  <symbol id="cart" viewBox="0 0 24 24" stroke-width="1.5" stroke="currentColor" fill="none">
    <path
      d="M6.331 8h11.339a2 2 0 0 1 1.977 2.304l-1.255 8.152a3 3 0 0 1 -2.966 2.544h-6.852a3 3 0 0 1 -2.965 -2.544l-1.255 -8.152a2 2 0 0 1 1.977 -2.304z" />
    <path d="M9 11v-5a3 3 0 0 1 6 0v5" />
  </symbol>
  <symbol id="logout" viewBox="0 0 24 24" stroke-width="1.5" stroke="currentColor" fill="none">
    <path d="M14 8v-2a2 2 0 0 0 -2 -2h-7a2 2 0 0 0 -2 2v12a2 2 0 0 0 2 2h7a2 2 0 0 0 2 -2v-2" />
    <path d="M9 12h12l-3 -3" />
    <path d="M18 15l3 -3" />
  </symbol>
</svg>
