<svg xmlns="http://www.w3.org/2000/svg">
  <symbol id="search" viewBox="0 0 24 24" stroke-width="1.5" stroke="currentColor" fill="none">
    <path d="M10 10m-7 0a7 7 0 1 0 14 0a7 7 0 1 0 -14 0" />
    <path d="M21 21l-6 -6" />
  </symbol>
  <symbol id="favorite" viewBox="0 0 24 24" stroke-width="1.5" stroke="currentColor" fill="none">
    <path
      d="M6.979 3.074a6 6 0 0 1 4.988 1.425l.037 .033l.034 -.03a6 6 0 0 1 4.733 -1.44l.246 .036a6 6 0 0 1 3.364 10.008l-.18 .185l-.048 .041l-7.45 7.379a1 1 0 0 1 -1.313 .082l-.094 -.082l-7.493 -7.422a6 6 0 0 1 3.176 -10.215z"
      stroke-width="0" fill="currentColor" />
  </symbol>
  <symbol id="user" viewBox="0 0 24 24" stroke-width="1.5" stroke="currentColor" fill="none">
    <path d="M8 7a4 4 0 1 0 8 0a4 4 0 0 0 -8 0"></path>
    <path d="M6 21v-2a4 4 0 0 1 4 -4h4a4 4 0 0 1 4 4v2"></path>
  </symbol>
  <symbol id="cart" viewBox="0 0 24 24" stroke-width="1.5" stroke="currentColor" fill="none">
    <path d="M6 19m-2 0a2 2 0 1 0 4 0a2 2 0 1 0 -4 0"></path>
    <path d="M17 19m-2 0a2 2 0 1 0 4 0a2 2 0 1 0 -4 0"></path>
    <path d="M17 17h-11v-14h-2"></path>
    <path d="M6 5l14 1l-1 7h-13"></path>
  </symbol>
  <symbol id="logout" viewBox="0 0 24 24" stroke-width="1.5" stroke="currentColor" fill="none">
    <path d="M14 8v-2a2 2 0 0 0 -2 -2h-7a2 2 0 0 0 -2 2v12a2 2 0 0 0 2 2h7a2 2 0 0 0 2 -2v-2" />
    <path d="M9 12h12l-3 -3" />
    <path d="M18 15l3 -3" />
  </symbol>
</svg>
