<svg width="197" height="167" fill="none" xmlns="http://www.w3.org/2000/svg">
    <path
        d="M34.608 33.985H0v8.334c0 1.758.773 3.408 2.113 4.552a6.097 6.097 0 0 0 4.89 1.361l2.754-.47a3.66 3.66 0 0 1 3.285 1.18c.736.832.99 1.891.688 2.915-.012.06-.036.12-.048.157l-1.365-.025c-.35-.036-.64-.06-.93-.06-4.492 0-4.492 3.782-4.492 5.408 0 1.372.568 2.697 1.57 3.637.99.939 2.355 1.42 3.768 1.336h.024l.7-.06 1.57-.144c1.449-.12 3.876-.338 4.263-.338h.012c3.985.542 6.061 4.12 6.061 7.37 0 1.94-.688 3.77-1.956 5.167-6.58 7.563-6.63 18.57-.048 26.266l24.163 24.122 9.805 9.779V56.156c0-12.223-9.974-22.17-22.23-22.17m-9.552 64.586c-5.543-6.491-5.495-15.873.084-22.292 1.751-1.939 2.705-4.468 2.705-7.141 0-3.276-1.389-6.178-3.61-8.081l.736-.072a16.356 16.356 0 0 1 12.583 4.082 16.242 16.242 0 0 1 5.386 12.055v2.95c-6.642 9.78-7.765 22.112-3.635 32.722L25.033 98.56l.012.012zm28.8 28.746-4.71-4.696c-11.266-11.417-12.413-29.626-2.668-42.368l3.924-5.166a31.036 31.036 0 0 0 3.454-5.696v57.926zm-5.833-54.024-2.161 2.842c-.266-5.058-2.512-9.864-6.316-13.272a19.31 19.31 0 0 0-14.889-4.829L12.74 59.288l-.737.06c-.52.06-1.099-.157-1.51-.542a2.013 2.013 0 0 1-.64-1.47c0-2.24.254-2.432 1.522-2.432.205 0 .399.024.833.06l1.69.024c.605 0 2.09-.229 2.682-2.312.58-1.987.072-4.107-1.34-5.696a6.66 6.66 0 0 0-6.002-2.144l-2.753.47a3.07 3.07 0 0 1-2.476-.687 3.042 3.042 0 0 1-1.075-2.3v-5.371h31.674c10.615 0 19.249 8.61 19.249 19.196-.06 6.299-2.077 12.224-5.833 17.15M24.622 41.849a1.49 1.49 0 0 1-1.485 1.482h-3.514c-.797 0-1.45-.65-1.45-1.458v-1.517h4.964c.809 0 1.485.65 1.485 1.481m149.447 32.456c-1.244-1.385-1.932-3.215-1.932-5.154 0-3.252 2.077-6.829 5.977-7.358.35 0 2.886.204 4.347.325l1.497.132.773.084h.073a4.996 4.996 0 0 0 5.289-4.986c0-1.613 0-5.407-4.492-5.407-.29 0-.58.024-.882.06l-1.413.025s-.036-.097-.048-.169c-.302-1.024-.036-2.071.7-2.902.834-.928 2.102-1.385 3.273-1.18l2.777.47a6.072 6.072 0 0 0 4.879-1.362A5.99 5.99 0 0 0 197 42.32v-8.334h-34.608c-12.257 0-22.231 9.948-22.231 22.171v78.328l9.805-9.779 24.235-24.206c6.497-7.611 6.449-18.619-.144-26.206m-11.665-37.345h31.625v5.371c0 .88-.386 1.722-1.074 2.3a3.068 3.068 0 0 1-2.464.687l-2.777-.47c-2.198-.361-4.492.458-5.99 2.144-1.412 1.59-1.908 3.72-1.34 5.696.592 2.096 2.065 2.324 2.705 2.324l1.86-.048c1.726-.18 2.161-.205 2.161 2.385 0 .566-.229 1.083-.64 1.469a2.01 2.01 0 0 1-1.461.554l-.857-.072-11.834-1.24a19.252 19.252 0 0 0-14.89 4.828c-3.803 3.409-6.049 8.202-6.315 13.272l-2.162-2.842c-3.755-4.926-5.76-10.863-5.832-17.15 0-10.585 8.634-19.184 19.248-19.184m-14.539 85.662-4.709 4.696V69.392a31.29 31.29 0 0 0 3.454 5.696l3.924 5.166c9.745 12.73 8.598 30.939-2.669 42.356m9.83-9.815c4.13-10.61 3.007-22.942-3.635-32.71v-2.95c0-4.588 1.956-8.984 5.386-12.055a16.324 16.324 0 0 1 12.583-4.082l.748.072c-2.234 1.903-3.622 4.805-3.622 8.069 0 2.673.954 5.202 2.692 7.117 5.603 6.443 5.652 15.825.194 22.22l-14.334 14.319h-.012zm14.672-70.946a1.49 1.49 0 0 1 1.485-1.48h4.975v1.517c0 .794-.652 1.457-1.461 1.457h-3.514c-.809 0-1.485-.65-1.485-1.482m-53.121-12.416 4.287-15.572-3.176 1.903a13.312 13.312 0 0 1-6.883 1.903c-5.868 0-11.037-3.793-12.812-9.297 1.377-.77 2.331-2.228 2.331-3.902 0-2.469-2.017-4.48-4.492-4.48-2.476 0-4.492 2.011-4.492 4.48 0 1.698.954 3.155 2.354 3.914a13.476 13.476 0 0 1-12.812 9.297c-2.451 0-4.83-.65-6.907-1.903l-3.188-1.902 4.323 15.583h41.48l-.013-.024zm-5.772-8.815c1.836 0 3.647-.313 5.362-.904l-1.86 6.757h-17.75V12.428a16.485 16.485 0 0 0 14.236 8.202m-29.935 0a16.477 16.477 0 0 0 14.2-8.13v13.983H79.965l-1.872-6.745a16.56 16.56 0 0 0 5.386.892zm51.671 115.552V33.985h-73.37v102.197L98.5 167l36.722-30.818h-.073zM64.761 36.96h67.502v10.032H64.761V36.96zm0 11.513h67.502v86.324l-33.75 28.325-33.752-28.325V48.473zm40.248 92.972H92.015v-1.481h12.994v1.481zm7.366-44.788c3.224-2.59 4.83-5.78 4.83-9.562v-.903c0-3.372-1.497-6.576-4.492-9.61-2.995-3.023-7.282-4.54-12.848-4.54H79.819v.794c2.645 0 4.36.47 5.132 1.385.773.927 1.16 2.384 1.16 4.396V93.97c0 2-.387 3.469-1.16 4.396-.773.927-2.475 1.385-5.132 1.385v.795h21.169c4.371 0 8.163-1.3 11.387-3.89zM92.1 99.716V72.8h4.42c4.975 0 8.489 1.108 10.517 3.312 2.029 2.216 3.043 5.407 3.043 9.586v1.53c0 3.36-.821 6.286-2.451 8.767-1.642 2.48-5.265 3.72-10.892 3.72H92.1zm-4.456 27.903h3.007v.518h-3.562v-.204c0-1.036.495-1.963 1.618-2.084.265-.024.531-.048.797-.084.253-.036.616-.145.616-.47 0-.53-.761-.626-1.16-.626-.628 0-.978.132-1.533.421l-.242-.469c.677-.374 1.015-.494 1.787-.494.725 0 1.667.277 1.667 1.144 0 .638-.531.964-1.111 1.012-.278.036-.544.048-.821.084-.7.072-.966.578-1.063 1.216m5.784-1.421c0 1.301 1.063 2.036 2.283 2.036s2.282-.723 2.282-2.024c0-1.3-1.075-2.035-2.307-2.035-1.231 0-2.258.747-2.258 2.023zm4.034.012c0 1-.822 1.494-1.74 1.494-.917 0-1.762-.494-1.762-1.506 0-1.011.785-1.493 1.702-1.493.918 0 1.8.482 1.8 1.505zm4.009-1.951h.519v3.89h-.519v-3.89zm6.17-.084c-.29 0-.579.036-.845.108-.556.145-1.208.542-1.208 1.181 0 .939 1.184 1.204 1.92 1.204.821 0 1.172-.096 1.896-.47-.036.964-.99 1.506-1.859 1.506-.653 0-.942-.133-1.474-.494l-.302.433c.278.205.471.326.81.446.313.108.627.157.953.157 1.22 0 2.391-.795 2.391-2.096 0-1.301-1.098-1.963-2.282-1.963m-.157 1.975c-.398 0-1.364-.132-1.364-.686 0-.398.579-.615.893-.687.206-.048.423-.072.628-.072.725 0 1.365.241 1.667.939-.689.386-1.039.506-1.824.506z"
        fill="#C4AE7F" />
</svg>
