<svg xmlns="http://www.w3.org/2000/svg" fill="none">
  <symbol id="whatsapp" viewBox="0 0 54 53">
    <path fill-rule="evenodd" clip-rule="evenodd"
      d="M44.6599 7.7026C39.7438 2.73799 33.2089 0.00207031 26.2473 0C11.9013 0 0.225695 11.779 0.218514 26.2619C0.216462 30.8901 1.41572 35.4086 3.69421 39.3929L0 53L13.7971 49.3469C17.5991 51.44 21.879 52.5425 26.235 52.5445H26.2462C40.5902 52.5445 52.2678 40.7634 52.275 26.2805C52.2791 19.2643 49.5738 12.6641 44.6609 7.70156L44.6599 7.7026ZM26.2473 48.1089H26.238C22.3551 48.1089 18.5501 47.0551 15.2272 45.0655L14.4373 44.5925L6.24969 46.759L8.43585 38.7035L7.92188 37.8774C5.75522 34.4013 4.61238 30.3849 4.61546 26.2619C4.61956 14.2262 14.3265 4.43461 26.2586 4.43461C32.0363 4.43461 37.4684 6.70885 41.5524 10.8339C45.6365 14.9611 47.8842 20.4443 47.8822 26.2764C47.876 38.3163 38.1711 48.1078 26.2483 48.1078L26.2473 48.1089ZM38.1137 31.7607C37.4633 31.4315 34.2666 29.8436 33.6685 29.6251C33.0735 29.4067 32.6396 29.296 32.2046 29.9522C31.7696 30.6085 30.5262 32.0878 30.1456 32.5267C29.7671 32.9635 29.3865 33.0194 28.7361 32.6902C28.0857 32.3611 25.9898 31.6696 23.5051 29.4326C21.5723 27.6925 20.2664 25.5435 19.8878 24.8852C19.5093 24.2268 19.8488 23.8738 20.172 23.5467C20.4654 23.2527 20.8224 22.7807 21.1476 22.3966C21.4759 22.0167 21.5836 21.7435 21.8021 21.3035C22.0186 20.8667 21.9119 20.4816 21.7477 20.1535C21.5836 19.8263 20.2838 16.5956 19.7432 15.282C19.2159 14.0015 18.6793 14.1754 18.2792 14.1558C17.9007 14.1361 17.4677 14.134 17.0317 14.134C16.5957 14.134 15.894 14.2976 15.298 14.9559C14.703 15.6143 13.0216 17.2022 13.0216 20.4309C13.0216 23.6595 15.3524 26.7816 15.6765 27.2194C16.0007 27.6573 20.2612 34.2864 26.7859 37.1279C28.338 37.8039 29.5496 38.2076 30.4934 38.5099C32.0517 39.0088 33.4695 38.9384 34.5908 38.7707C35.8403 38.5834 38.4379 37.1828 38.9806 35.6508C39.5232 34.1187 39.5232 32.802 39.3591 32.5308C39.197 32.2544 38.7641 32.0909 38.1137 31.7627V31.7607Z"
      fill="currentColor" />
  </symbol>
  <symbol id="tiktok" viewBox="0 0 54 53">
    <path
      d="M46.3973 21.7878C41.7225 21.7878 37.3878 20.2774 33.8523 17.7112V36.2288C33.8523 45.4772 26.4062 53 17.2544 53C13.7178 53 10.4374 51.8737 7.74296 49.9617C3.46363 46.9244 0.657532 41.9027 0.657532 36.2288C0.657532 26.9803 8.10358 19.4555 17.2575 19.4555C18.0176 19.4555 18.7614 19.5197 19.4929 19.619V28.9213C18.785 28.6988 18.0371 28.5683 17.2575 28.5683C13.0785 28.5683 9.67824 32.0041 9.67824 36.2298C9.67824 39.1718 11.3307 41.7267 13.7434 43.0093C14.7946 43.5683 15.9902 43.8882 17.2605 43.8882C21.3432 43.8882 24.6738 40.6066 24.8275 36.5166L24.8336 0H33.8513C33.8513 0.79089 33.9281 1.56108 34.0633 2.31263C34.6995 5.78468 36.7383 8.76294 39.5649 10.6253C41.5319 11.9213 43.879 12.6791 46.3973 12.6791V21.7888H46.3993L46.3973 21.7878Z"
      fill="currentColor" />
  </symbol>
  <symbol id="instagram" viewBox="0 0 54 53">
    <path
      d="M27.2808 4.77414C34.3561 4.77414 35.1956 4.80105 37.9895 4.92838C40.8776 5.06088 43.8526 5.71924 45.9571 7.82371C48.0813 9.94785 48.7199 12.8939 48.8524 15.7913C48.9808 18.5852 49.0067 19.4237 49.0067 26.5C49.0067 33.5763 48.9798 34.4148 48.8524 37.2087C48.722 40.0813 48.0481 43.0853 45.9571 45.1763C43.8661 47.2673 40.889 47.9391 37.9895 48.0716C35.1956 48.2 34.3572 48.2259 27.2808 48.2259C20.2045 48.2259 19.366 48.1989 16.5721 48.0716C13.7213 47.9412 10.678 47.2528 8.60453 45.1763C6.49074 43.0625 5.8417 40.0885 5.7092 37.2087C5.58084 34.4148 5.55496 33.5763 5.55496 26.5C5.55496 19.4237 5.58188 18.5852 5.7092 15.7913C5.83963 12.9291 6.51973 9.90852 8.60453 7.82371C10.7245 5.70371 13.682 5.06088 16.5721 4.92838C19.366 4.80002 20.2045 4.77414 27.2808 4.77414ZM27.2808 0C20.0834 0 19.1807 0.0310547 16.3537 0.159414C12.2576 0.346777 8.18944 1.48648 5.22785 4.44807C2.25592 7.42 1.1276 11.4788 0.940237 15.5729C0.811877 18.3999 0.780823 19.3026 0.780823 26.5C0.780823 33.6974 0.811877 34.6001 0.940237 37.4271C1.1276 41.5191 2.27145 45.5976 5.22889 48.553C8.19875 51.5228 12.2648 52.6543 16.3547 52.8416C19.1818 52.97 20.0844 53.001 27.2819 53.001C34.4793 53.001 35.382 52.97 38.209 52.8416C42.303 52.6543 46.3753 51.5125 49.3348 48.553C52.2943 45.5935 53.4361 41.5212 53.6235 37.4271C53.7518 34.6001 53.7829 33.6974 53.7829 26.5C53.7829 19.3026 53.7518 18.3999 53.6235 15.5729C53.4361 11.4768 52.2943 7.40654 49.3348 4.44703C46.367 1.48131 42.2906 0.344707 38.2079 0.159414C35.3809 0.0310547 34.4783 0 27.2808 0Z"
      fill="currentColor" />
    <path
      d="M27.2808 12.8916C19.7656 12.8916 13.6727 18.9845 13.6727 26.4998C13.6727 34.015 19.7656 40.1079 27.2808 40.1079C34.7961 40.1079 40.889 34.015 40.889 26.4998C40.889 18.9845 34.7961 12.8916 27.2808 12.8916ZM27.2808 35.3328C22.4021 35.3328 18.4478 31.3774 18.4478 26.4998C18.4478 21.6221 22.4032 17.6668 27.2808 17.6668C32.1585 17.6668 36.1138 21.6221 36.1138 26.4998C36.1138 31.3774 32.1585 35.3328 27.2808 35.3328Z"
      fill="currentColor" />
    <path
      d="M41.4273 15.5333C43.1835 15.5333 44.6073 14.1096 44.6073 12.3533C44.6073 10.5971 43.1835 9.17334 41.4273 9.17334C39.671 9.17334 38.2473 10.5971 38.2473 12.3533C38.2473 14.1096 39.671 15.5333 41.4273 15.5333Z"
      fill="currentColor" />
  </symbol>
  <symbol id="facebook" viewBox="0 0 54 53">
    <path
    d="M53.1644 26.6609C53.1644 39.9674 43.4608 50.9983 30.7936 53V34.4196H36.9528L38.1256 26.7328H30.7936V21.7453C30.7936 19.6416 31.8184 17.5931 35.0999 17.5931H38.432V11.0476C38.432 11.0476 35.4063 10.5279 32.5161 10.5279C26.478 10.5279 22.5341 14.2094 22.5341 20.8726V26.7317H15.8232V34.4186H22.5341V52.999C9.86999 50.9931 0.164368 39.9643 0.164368 26.6609C0.164368 11.937 12.0293 0 26.6644 0C41.2994 0 53.1644 11.9349 53.1644 26.6609Z"
    fill="currentColor" />
  </symbol>
</svg>
